<?xml version="1.0" encoding="utf-8"?>
<!-- Generator: Adobe Illustrator 16.0.4, SVG Export Plug-In . SVG Version: 6.00 Build 0)  -->
<!DOCTYPE svg PUBLIC "-//W3C//DTD SVG 1.0//EN" "http://www.w3.org/TR/2001/REC-SVG-20010904/DTD/svg10.dtd">
<svg version="1.0" xmlns="http://www.w3.org/2000/svg" xmlns:xlink="http://www.w3.org/1999/xlink" x="0px" y="0px"
	 width="283.46px" height="283.46px" viewBox="0 0 283.46 283.46" enable-background="new 0 0 283.46 283.46" xml:space="preserve">
<g id="Calque_1" display="none">
	
		<image display="inline" overflow="visible" width="481" height="433" xlink:href="town_b.png"  transform="matrix(0.5209 0 0 0.5209 16.4585 21.9199)">
	</image>
</g>
<g id="Calque_2">
	<polyline fill="none" stroke="#020202" stroke-width="4" stroke-miterlimit="10" points="32.334,234.793 32.334,111.793 
		37.334,111.793 37.334,103.793 51,103.793 51,111.46 69,111.46 69,133.126 75.667,133.126 75.667,234.793 88.334,234.793 
		88.334,160.793 94,160.793 94,149.126 108.667,149.126 108.667,160.46 121,160.46 121,234.793 131,234.793 131,219.46 
		134.667,219.46 134.667,197.793 139.667,197.793 139.667,89.126 144.001,89.126 144.001,77.793 148.667,77.793 148.667,69.126 
		151.667,69.126 154.001,45.459 156.001,45.459 156.001,26.126 158.334,26.126 158.334,45.459 160.668,46.126 162.668,68.793 
		166.668,68.793 166.668,76.459 171.001,76.459 171.001,87.793 175.668,87.793 175.668,197.793 179.668,197.793 179.668,217.126 
		184.001,217.126 184.001,234.793 190.001,234.793 190.001,153.126 194.334,153.126 194.334,141.73 216.001,141.73 216.001,152.793 
		236.668,152.793 236.668,171.126 263.334,171.126 263.334,234.793 	"/>
</g>
</svg>
