<?xml version="1.0" encoding="utf-8"?>
<!-- Generator: Adobe Illustrator 16.0.4, SVG Export Plug-In . SVG Version: 6.00 Build 0)  -->
<!DOCTYPE svg PUBLIC "-//W3C//DTD SVG 1.1//EN" "http://www.w3.org/Graphics/SVG/1.1/DTD/svg11.dtd">
<svg version="1.1" id="Calque_1" xmlns="http://www.w3.org/2000/svg" xmlns:xlink="http://www.w3.org/1999/xlink" x="0px" y="0px"
	 width="70.87px" height="70.87px" viewBox="0 0 70.87 70.87" enable-background="new 0 0 70.87 70.87" xml:space="preserve">
<g>
	<g>
		<polygon fill="#FBFBFB" points="62.225,47.646 62.225,42.151 56.029,42.151 56.029,39.076 49.115,39.076 49.115,42.151 
			47.637,42.151 47.637,65.739 47.021,65.739 47.021,60.837 45.955,60.837 45.955,55.1 44.521,55.1 44.521,23.917 43.416,23.917 
			43.416,20.589 42.113,20.589 42.113,18.46 40.957,18.46 40.222,12.97 40.222,11.815 39.616,11.815 39.542,6.056 38.326,6.056 
			38.254,11.815 37.649,11.815 37.654,12.918 36.911,18.46 35.758,18.46 35.758,20.589 34.456,20.589 34.456,23.917 33.347,23.917 
			33.347,55.1 31.916,55.1 31.916,60.837 30.847,60.837 30.847,65.739 29.469,65.739 29.469,44.478 25.715,44.478 25.715,40.994 
			20.631,40.994 20.631,44.478 18.755,44.478 18.755,65.739 16.184,65.739 16.184,36.664 14.51,36.664 14.51,30.54 9.244,30.54 
			9.244,28.325 4.39,28.325 4.39,30.54 2.963,30.54 2.963,66.285 4.056,66.285 4.056,31.633 5.482,31.633 5.482,29.418 8.15,29.418 
			8.15,31.633 13.417,31.633 13.417,37.756 15.09,37.756 15.09,66.832 19.849,66.832 19.849,45.57 21.724,45.57 21.724,42.087 
			24.623,42.087 24.623,45.57 28.375,45.57 28.375,66.832 31.94,66.832 31.94,61.93 33.009,61.93 33.009,56.191 34.439,56.191 
			34.439,25.01 35.549,25.01 35.549,21.682 36.851,21.682 36.851,19.553 37.867,19.553 38.743,12.99 38.743,12.908 39.109,12.908 
			40.002,19.553 41.02,19.553 41.02,21.682 42.322,21.682 42.322,25.01 43.428,25.01 43.428,56.191 44.863,56.191 44.863,61.93 
			45.929,61.93 45.929,66.832 48.729,66.832 48.729,43.244 50.207,43.244 50.207,40.168 54.937,40.168 54.937,43.244 61.131,43.244 
			61.131,48.74 68.536,48.74 68.536,66.254 69.629,66.254 69.629,47.646 		"/>
	</g>
</g>
<g>
</g>
<g>
</g>
<g>
</g>
<g>
</g>
<g>
</g>
<g>
</g>
</svg>
